<?xml version="1.0" standalone="no"?>
<!DOCTYPE svg PUBLIC "-//W3C//DTD SVG 20010904//EN"
 "http://www.w3.org/TR/2001/REC-SVG-20010904/DTD/svg10.dtd">
<svg version="1.0" xmlns="http://www.w3.org/2000/svg"
 width="700.000000pt" height="700.000000pt" viewBox="0 0 700.000000 700.000000"
 preserveAspectRatio="xMidYMid meet">
<metadata>
Created by potrace 1.11, written by Peter Selinger 2001-2013
</metadata>
<g transform="translate(0.000000,700.000000) scale(0.100000,-0.100000)"
fill="#000000" stroke="none">
<path d="M805 6559 c-122 -15 -150 -21 -218 -46 -88 -31 -165 -72 -234 -125
-90 -68 -178 -162 -214 -228 -8 -15 -22 -39 -31 -52 -21 -33 -75 -168 -81
-203 -3 -16 -10 -52 -16 -80 -7 -34 -10 -800 -8 -2355 2 -2551 -3 -2327 64
-2490 25 -61 97 -189 112 -200 4 -3 31 -39 60 -82 128 -187 277 -296 497 -365
l89 -28 2850 0 2850 0 75 23 c162 51 302 150 382 271 17 25 18 145 18 2110 l0
2084 -39 51 c-21 28 -51 71 -66 96 -40 65 -151 170 -219 209 -63 35 -158 74
-216 87 -19 5 -1248 11 -2730 14 -2390 4 -2698 7 -2725 20 -28 15 -30 19 -30
71 0 79 41 143 114 181 l53 28 2662 0 c2959 0 2717 -6 2789 68 20 20 43 56 51
79 17 47 15 152 -4 228 -18 70 -70 182 -111 235 -19 25 -52 70 -72 101 -88
133 -237 244 -368 275 -19 4 -36 8 -39 9 -3 1 -23 5 -45 10 -46 9 -5124 13
-5200 4z m5104 -3435 c57 -16 143 -67 175 -103 11 -11 16 -21 11 -21 -4 0 -3
-6 3 -13 15 -18 30 -117 25 -173 -13 -179 -134 -333 -302 -385 -143 -44 -302
-14 -409 76 -40 34 -64 107 -64 198 0 298 273 503 561 421z"/>
</g>
</svg>
